<?xml version="1.0" encoding="utf-8"?>
<svg xmlns="http://www.w3.org/2000/svg" xmlns:xlink="http://www.w3.org/1999/xlink" style="margin: auto; background: rgba(255, 255, 255, 0); display: block; shape-rendering: auto;" width="200px" height="200px" viewBox="0 0 100 100" preserveAspectRatio="xMidYMid">
<g transform="rotate(0 50 50)">
  <rect x="44" y="15.5" rx="6" ry="13.5" width="12" height="27" fill="#65106e">
    <animate attributeName="opacity" values="1;0" keyTimes="0;1" dur="0.4545454545454546s" begin="-0.39772727272727276s" repeatCount="indefinite"></animate>
  </rect>
</g><g transform="rotate(45 50 50)">
  <rect x="44" y="15.5" rx="6" ry="13.5" width="12" height="27" fill="#65106e">
    <animate attributeName="opacity" values="1;0" keyTimes="0;1" dur="0.4545454545454546s" begin="-0.34090909090909094s" repeatCount="indefinite"></animate>
  </rect>
</g><g transform="rotate(90 50 50)">
  <rect x="44" y="15.5" rx="6" ry="13.5" width="12" height="27" fill="#65106e">
    <animate attributeName="opacity" values="1;0" keyTimes="0;1" dur="0.4545454545454546s" begin="-0.2840909090909091s" repeatCount="indefinite"></animate>
  </rect>
</g><g transform="rotate(135 50 50)">
  <rect x="44" y="15.5" rx="6" ry="13.5" width="12" height="27" fill="#65106e">
    <animate attributeName="opacity" values="1;0" keyTimes="0;1" dur="0.4545454545454546s" begin="-0.2272727272727273s" repeatCount="indefinite"></animate>
  </rect>
</g><g transform="rotate(180 50 50)">
  <rect x="44" y="15.5" rx="6" ry="13.5" width="12" height="27" fill="#65106e">
    <animate attributeName="opacity" values="1;0" keyTimes="0;1" dur="0.4545454545454546s" begin="-0.17045454545454547s" repeatCount="indefinite"></animate>
  </rect>
</g><g transform="rotate(225 50 50)">
  <rect x="44" y="15.5" rx="6" ry="13.5" width="12" height="27" fill="#65106e">
    <animate attributeName="opacity" values="1;0" keyTimes="0;1" dur="0.4545454545454546s" begin="-0.11363636363636365s" repeatCount="indefinite"></animate>
  </rect>
</g><g transform="rotate(270 50 50)">
  <rect x="44" y="15.5" rx="6" ry="13.5" width="12" height="27" fill="#65106e">
    <animate attributeName="opacity" values="1;0" keyTimes="0;1" dur="0.4545454545454546s" begin="-0.05681818181818182s" repeatCount="indefinite"></animate>
  </rect>
</g><g transform="rotate(315 50 50)">
  <rect x="44" y="15.5" rx="6" ry="13.5" width="12" height="27" fill="#65106e">
    <animate attributeName="opacity" values="1;0" keyTimes="0;1" dur="0.4545454545454546s" begin="0s" repeatCount="indefinite"></animate>
  </rect>
</g>
<!-- [ldio] generated by https://loading.io/ --></svg>